<?xml version="1.0" encoding="UTF-8" standalone="no"?>
<!-- Created with Inkscape (http://www.inkscape.org/) -->

<svg
   xmlns:dc="http://purl.org/dc/elements/1.1/"
   xmlns:cc="http://creativecommons.org/ns#"
   xmlns:rdf="http://www.w3.org/1999/02/22-rdf-syntax-ns#"
   xmlns:svg="http://www.w3.org/2000/svg"
   xmlns="http://www.w3.org/2000/svg"
   xmlns:sodipodi="http://sodipodi.sourceforge.net/DTD/sodipodi-0.dtd"
   xmlns:inkscape="http://www.inkscape.org/namespaces/inkscape"
   width="1080"
   height="1080"
   sodipodi:docname="Hammerhead.svg">
  <g
     inkscape:label="Layer 1"
     inkscape:groupmode="layer"
     id="layer1"
     opacity="0.025"
     transform="translate(0,200)">
    <path
       style="fill:#428bca"
       d="m 474.14784,601.44652 c -4.48074,-4.48073 -8.14674,-15.1151 -8.14674,-23.63199 0,-23.89168 -28.80591,-27.92135 -62.84344,-8.79122 -30.63899,17.22011 -74.83208,19.90006 -107.18321,6.49978 -15.18325,-6.2891 -27.2099,-6.30354 -53.21944,-0.0638 -35.18019,8.43941 -50.2243,4.7922 -77.16518,-18.70779 -20.10334,-17.5357 -13.13315,-23.65317 8.99628,-7.89563 16.17785,11.51963 27.00066,14.04431 48.08337,11.21654 14.9635,-2.00705 28.33828,-4.781 29.72163,-6.1644 1.3834,-1.38335 -6.50648,-20.40093 -17.53302,-42.26125 -11.0266,-21.8603 -20.04833,-46.47788 -20.04833,-54.70573 0,-8.22785 -7.85421,-23.83624 -17.4538,-34.6853 -21.1846,-23.94197 -30.06888,-44.79941 -30.06888,-70.59195 0,-27.04888 29.42976,-49.58607 60.07867,-46.00798 18.12814,2.11636 26.8699,-1.30208 41.98648,-16.4187 21.28892,-21.2889 47.45754,-24.74494 63.7793,-8.42319 12.62127,12.62126 12.72955,13.52871 3.64056,30.51167 -7.22437,13.49888 -33.70591,18.48207 -33.70591,6.34265 0,-3.73393 3.81879,-6.0252 8.48619,-5.09172 4.66739,0.93348 8.48619,-2.84346 8.48619,-8.39322 0,-19.97326 -23.13192,-15.03292 -37.13222,7.93041 -17.81965,29.22789 -17.67768,30.18895 8.27918,56.05536 17.90025,17.83789 29.46671,22.84991 61.29063,26.55856 43.96972,5.1241 80.02852,-0.40754 64.95009,-9.96378 -5.02218,-3.18291 -16.85283,-5.83389 -26.29031,-5.89107 -23.9643,-0.14518 -47.33601,-18.30296 -47.33601,-36.77596 0,-18.87855 16.81002,-34.52372 44.09021,-41.03494 37.26323,-8.89397 47.22003,-28.43826 27.92844,-54.82107 -8.09054,-11.06446 -11.04183,-11.59988 -20.5309,-3.72462 -6.09519,5.05855 -12.68134,7.5982 -14.63585,5.64367 -5.27279,-5.27275 16.92337,-25.53699 27.97159,-25.53699 15.24318,0 31.35713,30.86462 28.9906,55.5284 -2.04941,21.35827 -16.3542,33.72936 -56.47487,48.84061 -15.02252,5.65817 9.43828,18.38364 42.97072,22.35506 l 35.14204,4.16206 -4.01583,-20.07916 c -3.08542,-15.42707 0.0557,-24.91803 13.55802,-40.96451 9.66562,-11.48694 17.6183,-25.02688 17.67267,-30.08875 0.2011,-18.73168 21.38758,-69.48477 40.75939,-97.64071 18.34566,-26.66453 65.13573,-57.52521 87.21803,-57.52521 18.91808,0 47.29649,21.22454 57.70456,43.15791 25.07249,52.83636 9.30913,113.3151 -42.6375,163.58576 -39.25632,37.98979 -36.7955,44.18736 16.58206,41.76174 34.04976,-1.54732 46.57888,-5.00736 54.09573,-14.93906 21.05254,-27.81587 1.40515,-57.94279 -22.31708,-34.22056 -10.28974,10.28975 -10.22116,11.11179 0.92708,11.11179 6.66883,0 10.07642,3.17532 7.63933,7.11861 -6.02767,9.75298 -23.5576,-5.25613 -23.5576,-20.17001 0,-26.75484 42.87346,-38.15066 64.01015,-17.01397 20.85155,20.85158 5.33241,78.69138 -23.57568,87.86645 -7.71434,2.44844 -13.02432,7.45697 -11.79996,11.13007 4.24535,12.73602 96.02358,46.48107 126.41709,46.48107 25.61949,0 33.5812,-3.73364 56.20471,-26.35712 33.28218,-33.28219 35.07731,-58.79745 6.3772,-90.64523 -16.59339,-18.41338 -22.05914,-20.89721 -32.2475,-14.6546 -14.52598,8.90035 -19.7179,28.48245 -10.10135,38.09896 10.79132,10.79135 24.02393,-0.56403 14.30444,-12.27521 -5.23603,-6.30906 -5.48534,-9.57902 -0.73029,-9.57902 11.1454,0 16.1459,12.25114 11.2705,27.61233 -5.92088,18.6548 -30.94267,14.79551 -41.46751,-6.39583 -10.61369,-21.37017 -0.40741,-50.36192 21.93975,-62.32177 14.76071,-7.8997 20.07992,-7.45773 40.11783,3.33342 12.70545,6.84235 31.06689,23.9356 40.80309,37.985 14.56636,21.01918 16.86896,29.98626 12.99828,50.61864 -9.67961,51.59678 -68.82672,105.31415 -115.9594,105.31415 -19.24429,0 -104.4948,-25.30733 -163.39396,-48.50488 -39.12437,-15.4092 -32.39601,0.11861 23.23705,53.62674 61.1749,58.83833 72.84612,84.16485 52.84963,114.68335 -13.17943,20.11433 -29.24361,19.16269 -90.22078,-5.34471 -35.28636,-14.18197 -36.36207,-14.21654 -59.22793,-1.90243 -23.26658,12.52984 -44.32314,10.79489 -86.43752,-7.12199 -8.48302,-3.60896 -11.88066,-1.93447 -11.88066,5.85536 0,6.00035 3.05502,10.90972 6.78898,10.90972 3.73392,0 6.78894,3.05502 6.78894,6.78901 0,9.36565 -15.91206,8.52815 -25.79802,-1.35783 z m 222.6777,-38.22861 c 0,-13.58104 -95.24397,-109.77059 -108.69152,-109.77059 -5.37781,0 -6.76777,5.38308 -3.94417,15.27515 2.39808,8.40133 6.23496,29.78654 8.52639,47.52269 2.99928,23.21491 7.22918,32.32722 15.10129,32.5321 6.01426,0.1565 21.62763,6.1385 34.69637,13.29332 31.13602,17.04629 54.31164,17.53585 54.31164,1.14733 z M 552.8997,553.92384 c 4.48071,-4.48068 8.14675,-14.45677 8.14675,-22.16912 0,-18.23276 -28.54162,-71.55023 -37.33923,-69.75191 -3.73397,0.76325 -18.2338,16.61935 -32.22191,35.2358 -28.486,37.91127 -26.53476,45.19616 15.24948,56.93301 32.51911,9.13439 36.80575,9.11137 46.16491,-0.24778 z m -183.64121,-2.92118 c 8.40131,-2.25145 15.27512,-8.71715 15.27512,-14.36813 0,-8.17794 -6.30245,-9.56417 -30.88563,-6.7933 -35.19775,3.96732 -44.44365,9.7938 -30.01832,18.91663 11.60956,7.34213 24.28182,7.96558 45.62883,2.2448 z M 320.8575,517.16267 c 18.18494,-7.59815 37.2473,-9.82688 62.10535,-7.26133 39.05414,4.03076 49.51851,-2.25408 77.04137,-46.27058 18.49874,-29.58455 16.31441,-31.34768 -19.31218,-15.58833 -23.89064,10.56796 -44.60815,13.96068 -81.02352,13.26852 -48.54291,-0.92269 -48.94224,-0.78453 -51.0667,17.66731 -2.5217,21.90244 -28.15999,30.01495 -35.38169,11.19557 -5.53604,-14.42676 1.48753,-22.50144 8.99971,-10.34651 4.46049,7.2173 6.63243,7.29727 10.89445,0.40116 3.32591,-5.38142 -0.45885,-13.29536 -10.08692,-21.09167 -18.52037,-14.99691 -23.38594,-15.41291 -33.78051,-2.8882 -6.15383,7.41492 -5.51273,15.44551 2.82653,35.4041 16.47816,39.43779 26.52896,43.16531 68.78411,25.51001 z M 306.46064,416.09443 c -14.93572,-5.28061 -35.63319,-19.02745 -45.99442,-30.54854 -10.36124,-11.52108 -21.9514,-19.02361 -25.75596,-16.67226 -9.33325,5.76827 -26.73924,-9.46918 -26.48302,-23.18361 0.18106,-9.6896 1.05804,-9.5873 7.1263,0.83127 10.2204,17.54734 28.03201,15.21441 25.38699,-3.32512 -2.75079,-19.28077 -25.54424,-24.15893 -37.36269,-7.99621 -23.36477,31.95317 6.02148,77.43969 50.14423,77.61759 14.18052,0.0572 30.36532,3.06543 35.96619,6.685 5.60088,3.61957 17.82099,6.49373 27.15583,6.38701 13.50693,-0.15438 11.42761,-2.15441 -10.18345,-9.79513 z M 574.5204,329.31004 c -0.3273,-25.96855 -34.65141,-34.27672 -39.41519,-9.54047 -3.6728,19.07149 11.2718,32.90533 26.65411,24.67296 7.07577,-3.78683 12.81825,-10.59645 12.76108,-15.13249 z m -99.39697,-13.04257 c 2.15437,-8.23826 2.34456,-16.55112 0.42269,-18.47301 -4.3903,-4.39032 -16.09089,13.60783 -16.23003,24.96549 -0.17496,14.27984 11.64478,9.42518 15.80734,-6.49248 z"
       id="path9371" />
  </g>
</svg>
